<mxfile host="app.diagrams.net" agent="Mozilla/5.0 (Windows NT 10.0; Win64; x64) AppleWebKit/537.36 (KHTML, like Gecko) Chrome/131.0.0.0 Safari/537.36" version="26.0.10">
  <diagram name="Page-1" id="C8o0eph6H9VtQIhwYMiv">
    <mxGraphModel dx="2704" dy="1726" grid="1" gridSize="10" guides="1" tooltips="1" connect="1" arrows="1" fold="1" page="1" pageScale="1" pageWidth="827" pageHeight="1169" math="0" shadow="0">
      <root>
        <mxCell id="0" />
        <mxCell id="1" parent="0" />
        <mxCell id="UYZcEq3VdkzdzSZsWlH1-7" style="edgeStyle=orthogonalEdgeStyle;rounded=0;orthogonalLoop=1;jettySize=auto;html=1;entryX=0.5;entryY=0;entryDx=0;entryDy=0;" edge="1" parent="1" source="UYZcEq3VdkzdzSZsWlH1-1" target="UYZcEq3VdkzdzSZsWlH1-2">
          <mxGeometry relative="1" as="geometry" />
        </mxCell>
        <mxCell id="UYZcEq3VdkzdzSZsWlH1-1" value="Initialise read data" style="rounded=0;whiteSpace=wrap;html=1;" vertex="1" parent="1">
          <mxGeometry x="610" y="140" width="120" height="60" as="geometry" />
        </mxCell>
        <mxCell id="UYZcEq3VdkzdzSZsWlH1-5" style="edgeStyle=orthogonalEdgeStyle;rounded=0;orthogonalLoop=1;jettySize=auto;html=1;entryX=0.5;entryY=0;entryDx=0;entryDy=0;" edge="1" parent="1" source="UYZcEq3VdkzdzSZsWlH1-2" target="UYZcEq3VdkzdzSZsWlH1-4">
          <mxGeometry relative="1" as="geometry" />
        </mxCell>
        <mxCell id="UYZcEq3VdkzdzSZsWlH1-2" value="Check feedback store" style="rounded=0;whiteSpace=wrap;html=1;" vertex="1" parent="1">
          <mxGeometry x="610" y="250" width="120" height="60" as="geometry" />
        </mxCell>
        <mxCell id="UYZcEq3VdkzdzSZsWlH1-3" value="Create empty feedback store" style="rounded=0;whiteSpace=wrap;html=1;" vertex="1" parent="1">
          <mxGeometry x="610" y="480" width="120" height="60" as="geometry" />
        </mxCell>
        <mxCell id="UYZcEq3VdkzdzSZsWlH1-6" style="edgeStyle=orthogonalEdgeStyle;rounded=0;orthogonalLoop=1;jettySize=auto;html=1;entryX=0.5;entryY=0;entryDx=0;entryDy=0;" edge="1" parent="1" source="UYZcEq3VdkzdzSZsWlH1-4" target="UYZcEq3VdkzdzSZsWlH1-3">
          <mxGeometry relative="1" as="geometry" />
        </mxCell>
        <mxCell id="UYZcEq3VdkzdzSZsWlH1-4" value="Feedback store exists?" style="rhombus;whiteSpace=wrap;html=1;" vertex="1" parent="1">
          <mxGeometry x="615" y="340" width="110" height="110" as="geometry" />
        </mxCell>
        <mxCell id="UYZcEq3VdkzdzSZsWlH1-8" value="" style="rounded=0;whiteSpace=wrap;html=1;fillColor=none;" vertex="1" parent="1">
          <mxGeometry x="580" y="90" width="180" height="470" as="geometry" />
        </mxCell>
        <mxCell id="UYZcEq3VdkzdzSZsWlH1-9" value="Initialisation" style="text;html=1;align=center;verticalAlign=middle;whiteSpace=wrap;rounded=0;" vertex="1" parent="1">
          <mxGeometry x="640" y="90" width="60" height="30" as="geometry" />
        </mxCell>
        <mxCell id="UYZcEq3VdkzdzSZsWlH1-13" style="edgeStyle=orthogonalEdgeStyle;rounded=0;orthogonalLoop=1;jettySize=auto;html=1;entryX=0.5;entryY=0;entryDx=0;entryDy=0;" edge="1" parent="1" source="UYZcEq3VdkzdzSZsWlH1-10" target="UYZcEq3VdkzdzSZsWlH1-11">
          <mxGeometry relative="1" as="geometry" />
        </mxCell>
        <mxCell id="UYZcEq3VdkzdzSZsWlH1-10" value="Read movie data" style="rounded=0;whiteSpace=wrap;html=1;" vertex="1" parent="1">
          <mxGeometry x="-190" y="140" width="120" height="60" as="geometry" />
        </mxCell>
        <mxCell id="UYZcEq3VdkzdzSZsWlH1-14" style="edgeStyle=orthogonalEdgeStyle;rounded=0;orthogonalLoop=1;jettySize=auto;html=1;entryX=0.5;entryY=0;entryDx=0;entryDy=0;" edge="1" parent="1" source="UYZcEq3VdkzdzSZsWlH1-11" target="UYZcEq3VdkzdzSZsWlH1-12">
          <mxGeometry relative="1" as="geometry" />
        </mxCell>
        <mxCell id="UYZcEq3VdkzdzSZsWlH1-11" value="Categorise user ID" style="rounded=0;whiteSpace=wrap;html=1;" vertex="1" parent="1">
          <mxGeometry x="-190" y="250" width="120" height="60" as="geometry" />
        </mxCell>
        <mxCell id="UYZcEq3VdkzdzSZsWlH1-12" value="Categorise item ID" style="rounded=0;whiteSpace=wrap;html=1;" vertex="1" parent="1">
          <mxGeometry x="-190" y="360" width="120" height="60" as="geometry" />
        </mxCell>
        <mxCell id="UYZcEq3VdkzdzSZsWlH1-27" style="edgeStyle=orthogonalEdgeStyle;rounded=0;orthogonalLoop=1;jettySize=auto;html=1;entryX=0.5;entryY=0;entryDx=0;entryDy=0;" edge="1" parent="1" source="UYZcEq3VdkzdzSZsWlH1-16" target="UYZcEq3VdkzdzSZsWlH1-19">
          <mxGeometry relative="1" as="geometry" />
        </mxCell>
        <mxCell id="UYZcEq3VdkzdzSZsWlH1-16" value="Merge movie and feeback to enrich feeback" style="rounded=0;whiteSpace=wrap;html=1;" vertex="1" parent="1">
          <mxGeometry x="200" y="370" width="120" height="60" as="geometry" />
        </mxCell>
        <mxCell id="UYZcEq3VdkzdzSZsWlH1-19" value="Concatenate with movie data" style="rounded=0;whiteSpace=wrap;html=1;" vertex="1" parent="1">
          <mxGeometry x="200" y="480" width="120" height="60" as="geometry" />
        </mxCell>
        <mxCell id="UYZcEq3VdkzdzSZsWlH1-20" style="edgeStyle=orthogonalEdgeStyle;rounded=0;orthogonalLoop=1;jettySize=auto;html=1;entryX=0.5;entryY=0;entryDx=0;entryDy=0;" edge="1" parent="1" source="UYZcEq3VdkzdzSZsWlH1-21" target="UYZcEq3VdkzdzSZsWlH1-22">
          <mxGeometry relative="1" as="geometry" />
        </mxCell>
        <mxCell id="UYZcEq3VdkzdzSZsWlH1-21" value="Read movie data" style="rounded=0;whiteSpace=wrap;html=1;" vertex="1" parent="1">
          <mxGeometry x="330" y="120" width="120" height="60" as="geometry" />
        </mxCell>
        <mxCell id="UYZcEq3VdkzdzSZsWlH1-25" style="edgeStyle=orthogonalEdgeStyle;rounded=0;orthogonalLoop=1;jettySize=auto;html=1;entryX=1;entryY=0.5;entryDx=0;entryDy=0;" edge="1" parent="1" source="UYZcEq3VdkzdzSZsWlH1-22" target="UYZcEq3VdkzdzSZsWlH1-16">
          <mxGeometry relative="1" as="geometry">
            <Array as="points">
              <mxPoint x="390" y="400" />
            </Array>
          </mxGeometry>
        </mxCell>
        <mxCell id="UYZcEq3VdkzdzSZsWlH1-26" style="edgeStyle=orthogonalEdgeStyle;rounded=0;orthogonalLoop=1;jettySize=auto;html=1;entryX=1;entryY=0.5;entryDx=0;entryDy=0;" edge="1" parent="1" source="UYZcEq3VdkzdzSZsWlH1-22" target="UYZcEq3VdkzdzSZsWlH1-19">
          <mxGeometry relative="1" as="geometry">
            <Array as="points">
              <mxPoint x="390" y="510" />
            </Array>
          </mxGeometry>
        </mxCell>
        <mxCell id="UYZcEq3VdkzdzSZsWlH1-22" value="Categorise user ID" style="rounded=0;whiteSpace=wrap;html=1;" vertex="1" parent="1">
          <mxGeometry x="330" y="230" width="120" height="60" as="geometry" />
        </mxCell>
        <mxCell id="UYZcEq3VdkzdzSZsWlH1-24" style="edgeStyle=orthogonalEdgeStyle;rounded=0;orthogonalLoop=1;jettySize=auto;html=1;entryX=0;entryY=0.5;entryDx=0;entryDy=0;" edge="1" parent="1" source="UYZcEq3VdkzdzSZsWlH1-23" target="UYZcEq3VdkzdzSZsWlH1-16">
          <mxGeometry relative="1" as="geometry" />
        </mxCell>
        <mxCell id="UYZcEq3VdkzdzSZsWlH1-23" value="Read feedback data" style="rounded=0;whiteSpace=wrap;html=1;" vertex="1" parent="1">
          <mxGeometry x="80" y="180" width="120" height="60" as="geometry" />
        </mxCell>
        <mxCell id="UYZcEq3VdkzdzSZsWlH1-29" style="edgeStyle=orthogonalEdgeStyle;rounded=0;orthogonalLoop=1;jettySize=auto;html=1;entryX=0.5;entryY=0;entryDx=0;entryDy=0;" edge="1" parent="1" source="UYZcEq3VdkzdzSZsWlH1-28" target="UYZcEq3VdkzdzSZsWlH1-10">
          <mxGeometry relative="1" as="geometry" />
        </mxCell>
        <mxCell id="UYZcEq3VdkzdzSZsWlH1-30" style="edgeStyle=orthogonalEdgeStyle;rounded=0;orthogonalLoop=1;jettySize=auto;html=1;entryX=0.5;entryY=0;entryDx=0;entryDy=0;" edge="1" parent="1" source="UYZcEq3VdkzdzSZsWlH1-28" target="UYZcEq3VdkzdzSZsWlH1-21">
          <mxGeometry relative="1" as="geometry" />
        </mxCell>
        <mxCell id="UYZcEq3VdkzdzSZsWlH1-31" style="edgeStyle=orthogonalEdgeStyle;rounded=0;orthogonalLoop=1;jettySize=auto;html=1;" edge="1" parent="1" source="UYZcEq3VdkzdzSZsWlH1-28" target="UYZcEq3VdkzdzSZsWlH1-23">
          <mxGeometry relative="1" as="geometry">
            <Array as="points">
              <mxPoint x="230" y="5" />
              <mxPoint x="230" y="210" />
            </Array>
          </mxGeometry>
        </mxCell>
        <mxCell id="UYZcEq3VdkzdzSZsWlH1-28" value="Feedback data empty?" style="rhombus;whiteSpace=wrap;html=1;" vertex="1" parent="1">
          <mxGeometry x="60" y="-50" width="110" height="110" as="geometry" />
        </mxCell>
        <mxCell id="UYZcEq3VdkzdzSZsWlH1-32" value="Yes" style="text;html=1;align=center;verticalAlign=middle;whiteSpace=wrap;rounded=0;" vertex="1" parent="1">
          <mxGeometry y="-20" width="60" height="30" as="geometry" />
        </mxCell>
        <mxCell id="UYZcEq3VdkzdzSZsWlH1-33" value="No" style="text;html=1;align=center;verticalAlign=middle;whiteSpace=wrap;rounded=0;" vertex="1" parent="1">
          <mxGeometry x="180" y="-20" width="60" height="30" as="geometry" />
        </mxCell>
        <mxCell id="UYZcEq3VdkzdzSZsWlH1-35" value="" style="rounded=0;whiteSpace=wrap;html=1;fillColor=none;" vertex="1" parent="1">
          <mxGeometry x="-220" y="70" width="180" height="390" as="geometry" />
        </mxCell>
        <mxCell id="UYZcEq3VdkzdzSZsWlH1-36" value="With feedback path" style="text;html=1;align=center;verticalAlign=middle;whiteSpace=wrap;rounded=0;" vertex="1" parent="1">
          <mxGeometry x="-220" y="80" width="60" height="30" as="geometry" />
        </mxCell>
        <mxCell id="UYZcEq3VdkzdzSZsWlH1-37" value="" style="rounded=0;whiteSpace=wrap;html=1;fillColor=none;" vertex="1" parent="1">
          <mxGeometry x="50" y="70" width="430" height="490" as="geometry" />
        </mxCell>
        <mxCell id="UYZcEq3VdkzdzSZsWlH1-38" value="Without feedback path" style="text;html=1;align=center;verticalAlign=middle;whiteSpace=wrap;rounded=0;" vertex="1" parent="1">
          <mxGeometry x="60" y="80" width="60" height="30" as="geometry" />
        </mxCell>
        <mxCell id="UYZcEq3VdkzdzSZsWlH1-43" style="edgeStyle=orthogonalEdgeStyle;rounded=0;orthogonalLoop=1;jettySize=auto;html=1;entryX=0.5;entryY=0;entryDx=0;entryDy=0;" edge="1" parent="1" source="UYZcEq3VdkzdzSZsWlH1-39" target="UYZcEq3VdkzdzSZsWlH1-40">
          <mxGeometry relative="1" as="geometry" />
        </mxCell>
        <mxCell id="UYZcEq3VdkzdzSZsWlH1-39" value="Select item data" style="rounded=0;whiteSpace=wrap;html=1;" vertex="1" parent="1">
          <mxGeometry x="-810" y="70" width="120" height="60" as="geometry" />
        </mxCell>
        <mxCell id="UYZcEq3VdkzdzSZsWlH1-44" style="edgeStyle=orthogonalEdgeStyle;rounded=0;orthogonalLoop=1;jettySize=auto;html=1;entryX=0.5;entryY=0;entryDx=0;entryDy=0;" edge="1" parent="1" source="UYZcEq3VdkzdzSZsWlH1-40" target="UYZcEq3VdkzdzSZsWlH1-41">
          <mxGeometry relative="1" as="geometry" />
        </mxCell>
        <mxCell id="UYZcEq3VdkzdzSZsWlH1-40" value="Aggregate tag counts" style="rounded=0;whiteSpace=wrap;html=1;" vertex="1" parent="1">
          <mxGeometry x="-810" y="170" width="120" height="60" as="geometry" />
        </mxCell>
        <mxCell id="UYZcEq3VdkzdzSZsWlH1-45" style="edgeStyle=orthogonalEdgeStyle;rounded=0;orthogonalLoop=1;jettySize=auto;html=1;entryX=0.5;entryY=0;entryDx=0;entryDy=0;" edge="1" parent="1" source="UYZcEq3VdkzdzSZsWlH1-41" target="UYZcEq3VdkzdzSZsWlH1-42">
          <mxGeometry relative="1" as="geometry" />
        </mxCell>
        <mxCell id="UYZcEq3VdkzdzSZsWlH1-41" value="Get unique movies" style="rounded=0;whiteSpace=wrap;html=1;" vertex="1" parent="1">
          <mxGeometry x="-810" y="270" width="120" height="60" as="geometry" />
        </mxCell>
        <mxCell id="UYZcEq3VdkzdzSZsWlH1-42" value="Merge tags with movies" style="rounded=0;whiteSpace=wrap;html=1;" vertex="1" parent="1">
          <mxGeometry x="-810" y="370" width="120" height="60" as="geometry" />
        </mxCell>
        <mxCell id="UYZcEq3VdkzdzSZsWlH1-54" style="edgeStyle=orthogonalEdgeStyle;rounded=0;orthogonalLoop=1;jettySize=auto;html=1;entryX=0.5;entryY=0;entryDx=0;entryDy=0;" edge="1" parent="1" source="UYZcEq3VdkzdzSZsWlH1-47" target="UYZcEq3VdkzdzSZsWlH1-49">
          <mxGeometry relative="1" as="geometry" />
        </mxCell>
        <mxCell id="UYZcEq3VdkzdzSZsWlH1-47" value="Select user data" style="rounded=0;whiteSpace=wrap;html=1;" vertex="1" parent="1">
          <mxGeometry x="-490" y="70" width="120" height="60" as="geometry" />
        </mxCell>
        <mxCell id="UYZcEq3VdkzdzSZsWlH1-55" style="edgeStyle=orthogonalEdgeStyle;rounded=0;orthogonalLoop=1;jettySize=auto;html=1;entryX=0.5;entryY=0;entryDx=0;entryDy=0;" edge="1" parent="1" source="UYZcEq3VdkzdzSZsWlH1-49" target="UYZcEq3VdkzdzSZsWlH1-51">
          <mxGeometry relative="1" as="geometry" />
        </mxCell>
        <mxCell id="UYZcEq3VdkzdzSZsWlH1-49" value="Aggregate ratings" style="rounded=0;whiteSpace=wrap;html=1;" vertex="1" parent="1">
          <mxGeometry x="-490" y="170" width="120" height="60" as="geometry" />
        </mxCell>
        <mxCell id="UYZcEq3VdkzdzSZsWlH1-56" style="edgeStyle=orthogonalEdgeStyle;rounded=0;orthogonalLoop=1;jettySize=auto;html=1;entryX=0.5;entryY=0;entryDx=0;entryDy=0;" edge="1" parent="1" source="UYZcEq3VdkzdzSZsWlH1-51" target="UYZcEq3VdkzdzSZsWlH1-52">
          <mxGeometry relative="1" as="geometry" />
        </mxCell>
        <mxCell id="UYZcEq3VdkzdzSZsWlH1-51" value="Aggregate tags" style="rounded=0;whiteSpace=wrap;html=1;" vertex="1" parent="1">
          <mxGeometry x="-490" y="270" width="120" height="60" as="geometry" />
        </mxCell>
        <mxCell id="UYZcEq3VdkzdzSZsWlH1-52" value="Create user profile" style="rounded=0;whiteSpace=wrap;html=1;" vertex="1" parent="1">
          <mxGeometry x="-490" y="370" width="120" height="60" as="geometry" />
        </mxCell>
        <mxCell id="UYZcEq3VdkzdzSZsWlH1-57" value="" style="rounded=0;whiteSpace=wrap;html=1;fillColor=none;" vertex="1" parent="1">
          <mxGeometry x="-840" y="30" width="500" height="420" as="geometry" />
        </mxCell>
        <mxCell id="UYZcEq3VdkzdzSZsWlH1-58" value="Data transformations" style="text;html=1;align=center;verticalAlign=middle;whiteSpace=wrap;rounded=0;" vertex="1" parent="1">
          <mxGeometry x="-650" y="30" width="120" height="30" as="geometry" />
        </mxCell>
        <mxCell id="UYZcEq3VdkzdzSZsWlH1-59" value="" style="rounded=0;whiteSpace=wrap;html=1;fillColor=none;" vertex="1" parent="1">
          <mxGeometry x="-260" y="-100" width="780" height="700" as="geometry" />
        </mxCell>
        <mxCell id="UYZcEq3VdkzdzSZsWlH1-60" value="Read and update data" style="text;html=1;align=center;verticalAlign=middle;whiteSpace=wrap;rounded=0;" vertex="1" parent="1">
          <mxGeometry x="65" y="-100" width="150" height="30" as="geometry" />
        </mxCell>
      </root>
    </mxGraphModel>
  </diagram>
</mxfile>
